<svg version="1.1" id="Capa_1" xmlns="http://www.w3.org/2000/svg" xmlns:xlink="http://www.w3.org/1999/xlink" x="0px" y="0px" viewBox="0 0 510.961 510.961" style="enable-background:new 0 0 510.961 510.961;" xml:space="preserve">
<g>
	<circle style="fill:none;stroke:#000000;stroke-width:30;stroke-miterlimit:10;" cx="113.925" cy="138.277" r="77.468"/>
	<path style="fill:none;stroke:#000000;stroke-width:30;stroke-miterlimit:10;" d="M211.788,318.418v-29.116&#10;&#9;&#9;c0-34.33-27.83-62.16-62.16-62.16H78.222c-34.33,0-62.16,27.83-62.16,62.16v91.06h124.604"/>
	<path style="fill:none;stroke:#000000;stroke-width:30;stroke-miterlimit:10;" d="M365.506,300.673h-20.691v-48.722&#10;&#9;&#9;c0-28.264-22.912-51.176-51.176-51.176h0c-11.683,0-21.154,9.471-21.154,21.154v50.232l-23.952,28.513l-36.488,17.745v157.541&#10;&#9;&#9;l33.614,20.002h119.848c27.972,0,50.648-22.676,50.648-50.648v-93.992C416.154,323.349,393.478,300.673,365.506,300.673z"/>
	
		<rect x="143.819" y="318.418" style="fill:none;stroke:#000000;stroke-width:30;stroke-miterlimit:10;" width="68.226" height="157.541"/>
	<path style="fill:none;stroke:#000000;stroke-width:30;stroke-linejoin:bevel;stroke-miterlimit:10;" d="M308.62,127.818&#10;&#9;&#9;c12.589-26.659,34.047-48.117,60.706-60.706c-26.659-12.589-48.117-34.047-60.706-60.706&#10;&#9;&#9;c-12.589,26.659-34.047,48.118-60.706,60.706C274.573,79.7,296.032,101.159,308.62,127.818z"/>
	<path style="fill:none;stroke:#000000;stroke-width:30;stroke-linejoin:bevel;stroke-miterlimit:10;" d="M442.788,235.426&#10;&#9;&#9;c-12.589-26.659-34.047-48.117-60.706-60.706c26.659-12.589,48.117-34.047,60.706-60.706&#10;&#9;&#9;c12.589,26.659,34.047,48.118,60.706,60.706C476.835,187.308,455.376,208.766,442.788,235.426z"/>
</g>
<g>
</g>
<g>
</g>
<g>
</g>
<g>
</g>
<g>
</g>
<g>
</g>
<g>
</g>
<g>
</g>
<g>
</g>
<g>
</g>
<g>
</g>
<g>
</g>
<g>
</g>
<g>
</g>
<g>
</g>
</svg>