<svg clip-rule="evenodd" fill-rule="evenodd" stroke-linejoin="round" stroke-miterlimit="2" viewBox="0 0 510 510" xmlns="http://www.w3.org/2000/svg"><path d="m125.254 449.02 6.276 11.091c.004.007.008.013.011.02 5.311 9.446 1.943 21.499-7.449 26.804l-22.256 12.614c-.008.005-.016.009-.024.014-9.446 5.311-21.5 1.943-26.807-7.454l-65.449-115.647c-5.359-9.454-1.991-21.518 7.413-26.83l22.283-12.614.007-.004c9.399-5.309 21.457-1.973 26.809 7.427l.011.018 5.087 8.989 58.186-33.687c17.551-10.151 35.485-16.767 54.762-10.507 18.735 6.075 49.32 19.17 80.535 24.811.352.063.7.151 1.041.261 15.814 5.12 25.426 21.109 21.108 37.166-.643 2.393-1.487 4.622-2.522 6.673 3.311-.961 6.553-2.352 9.742-4.21l79.359-46.22c28.727-16.735 47.879-14.911 58.72-7.638 9.34 6.266 13.669 16.964 13.39 27.467-.282 10.611-5.34 20.747-13.662 25.872l-144.002 88.66c-15.176 9.366-31.799 11.565-49.019 6.971l-.009-.003-101.258-27.137zm-7.657 18.957-65.435-115.623-.005-.008c-1.01-1.758-3.266-2.397-5.029-1.401l-22.276 12.611-.007.004c-1.757.992-2.37 3.248-1.369 5.013l.002.004 65.452 115.652.003.006c.996 1.763 3.259 2.376 5.031 1.385l22.239-12.605.01-.006c1.763-.996 2.377-3.26 1.384-5.032zm-.224-32.882 15.034-8.681c1.837-1.061 4.021-1.349 6.071-.799l104.452 27.993c12.816 3.419 25.196 1.843 36.49-5.127l.007-.005 144.008-88.664c3.699-2.278 5.61-6.863 5.997-11.552.597-7.237-2.789-15.235-11.741-17.11-8.387-1.758-20.188 1.047-36.26 10.41l-79.358 46.219c-12.749 7.43-26.111 9.485-40.673 7.167-.01-.002-.019-.003-.028-.005l-9.838-1.601c-.004 0-34.869-9.151-53.303-14.105-4.264-1.146-6.795-5.538-5.649-9.802s5.538-6.795 9.802-5.65c17.999 4.837 34.224 10.142 51.697 13.754 8.796.972 15.242-2.661 17.264-10.196l.001-.004c2.05-7.619-2.726-15.005-10.127-17.634-31.81-5.84-62.946-19.038-82.042-25.23l-.004-.001c-14.795-4.805-28.34 1.348-41.81 9.139l-58.316 33.763zm-73.463-70.632c5.051-.752 9.742 2.736 10.494 7.787.721 5.052-2.767 9.772-7.818 10.494-5.051.752-9.742-2.766-10.494-7.818-.721-5.051 2.767-9.742 7.818-10.463zm395.752-241.69c3.803 13.546 5.838 27.829 5.838 42.584 0 86.895-70.549 157.444-157.444 157.444-86.896 0-157.445-70.549-157.445-157.444 0-30.085 8.458-58.209 23.12-82.126l-17.031-18.482c-2.103-2.282-2.697-5.574-1.523-8.446 1.173-2.873 3.901-4.808 7-4.965l39.493-2.007c28.028-25.716 65.388-41.419 106.386-41.419 45.17 0 85.924 19.061 114.645 49.574l38.663-38.947.006-.006c14.024-14.096 36.913-14.166 51.009-.142 14.093 14.02 14.177 36.829.157 50.995l-.004.003c-13.738 13.864-32.619 32.938-52.87 53.384zm-48.24-53.924c-25.824-27.643-62.591-44.937-103.366-44.937-29.177 0-56.302 8.854-78.833 24.019l5.047-.257c2.374-.12 4.678.821 6.289 2.569s2.361 4.121 2.047 6.477l-.412 3.095c19.105-11.955 41.683-18.867 65.862-18.867 36.097 0 68.626 15.404 91.359 39.996zm-23.291 23.462c-19.831-21.723-48.373-35.363-80.075-35.363-26.093 0-50.045 9.238-68.76 24.62l-6.222 46.707c-.41 3.075-2.561 5.637-5.52 6.571-2.958.935-6.191.075-8.293-2.207l-10.332-11.212c-5.967 13.431-9.282 28.296-9.282 43.93 0 59.832 48.576 108.408 108.409 108.408 59.497 0 107.863-48.033 108.404-107.403-20.768 20.935-40.214 40.501-54.316 54.603-14.092 14.092-36.973 14.092-51.066 0l-62.257-62.315c-14.089-14.088-14.103-36.89-.015-51.051l.015-.015c14.092-14.092 36.973-14.092 51.066 0l36.675 36.676zm43.517 58.735c.539 4.696.817 9.471.817 14.311 0 68.663-55.746 124.408-124.409 124.408-68.664 0-124.409-55.745-124.409-124.408 0-22.427 5.948-43.475 16.348-61.654.219-.4.474-.785.766-1.15.496-.623 1.074-1.156 1.708-1.593 1.111-.769 2.369-1.222 3.653-1.365 1.283-.145 2.61.018 3.864.521.716.285 1.397.677 2.019 1.175.364.29.697.607.999.947l6.463 7.014 6.009-45.11s-45.45 2.31-45.45 2.31l9.553 10.366c.362.378.682.787.958 1.219.726 1.133 1.136 2.405 1.235 3.694.1 1.289-.109 2.609-.652 3.841-.206.468-.458.92-.757 1.348-15.003 22.452-23.752 49.431-23.752 78.437 0 78.065 63.379 141.444 141.445 141.444 78.065 0 141.444-63.379 141.444-141.444 0-10.031-1.046-19.82-3.035-29.262-4.924 4.97-9.88 9.971-14.817 14.951zm-80.817 58.605c22.971-22.971 135.859-136.915 150.334-151.521 7.806-7.888 7.777-20.589-.07-28.396-7.843-7.803-20.578-7.76-28.381.082l-130.453 131.415c-1.499 1.509-3.536 2.36-5.663 2.364s-4.168-.84-5.672-2.343l-42.353-42.354c-7.846-7.845-20.583-7.848-28.431-.007-7.845 7.893-7.857 20.596-.008 28.446l62.258 62.314c7.848 7.848 20.591 7.848 28.439 0z"/></svg>