<svg id="Layer_1" enable-background="new 0 0 512 512" height="512" viewBox="0 0 512 512" width="512" xmlns="http://www.w3.org/2000/svg"><path d="m464.067 208.866c-20.745 0-38.391 13.479-44.672 32.134h-149.195v-34.267h65.333c3.978 0 7.792-1.58 10.605-4.393l32.688-32.682c30.504 15.766 68.568-7.697 68.106-42.193 0-25.989-21.144-47.133-47.133-47.133-34.496-.458-57.967 37.61-42.188 68.115l-28.291 28.285h-59.12v-161.732c0-8.284-6.716-15-15-15-339.362 12.443-339.038 499.718.003 512 8.281 0 14.997-6.716 14.997-15v-161.733h59.121l28.291 28.285c-15.775 30.504 7.69 68.576 42.189 68.115 25.989 0 47.133-21.144 47.133-47.133.458-34.492-37.602-57.962-68.107-42.192l-32.688-32.682c-2.813-2.812-6.627-4.393-10.605-4.393h-65.334v-34.267h149.195c17.611 49.89 90.754 38.537 91.805-15.001 0-25.988-21.144-47.133-47.133-47.133zm-64.267-98.533c9.447 0 17.133 7.687 17.133 17.134-.861 22.698-33.409 22.692-34.267 0 .001-9.447 7.687-17.134 17.134-17.134zm0 257.067c9.447 0 17.133 7.686 17.133 17.133-.862 22.699-33.408 22.693-34.267 0 .001-9.447 7.687-17.133 17.134-17.133zm-159.6-126.4h-98.274c.97-28.94 4.741-56.803 11.068-82.467h87.206zm0-208.94v96.474h-78.289c16.566-46.992 44.119-87.05 78.289-96.474zm-67.593 13.452c-20.409 25.408-33.857 56.398-42.302 83.021h-61.788c34.408-50.167 78.947-73.163 104.09-83.021zm-121.431 113.021h71.022c-5.882 25.988-9.379 53.79-10.285 82.467h-82.211c1.884-28.941 9.202-56.826 21.474-82.467zm-21.474 112.467h82.211c.906 28.676 4.403 56.479 10.285 82.467h-71.022c-12.272-25.641-19.59-53.526-21.474-82.467zm38.815 112.467h61.788c8.448 26.632 21.897 57.618 42.302 83.021-25.143-9.858-69.682-32.854-104.09-83.021zm171.683 96.473c-34.17-9.424-61.722-49.482-78.289-96.474h78.289zm0-126.473h-87.206c-6.327-25.664-10.098-53.527-11.068-82.467h98.274zm223.867-80.333c-9.447 0-17.133-7.687-17.133-17.134.862-22.699 33.408-22.693 34.267 0-.001 9.447-7.687 17.134-17.134 17.134z"/></svg>