<?xml version="1.0" encoding="UTF-8"?>
<svg xmlns="http://www.w3.org/2000/svg" id="Layer_3" data-name="Layer 3" viewBox="0 0 64 64" width="512" height="512"><path d="M58,49H34.9a3.006,3.006,0,0,0-.618-1.212L28.759,41.35A1,1,0,0,0,28,41H17V40a1,1,0,0,0-1-1H2a1,1,0,0,0-1,1V62a1,1,0,0,0,1,1h8a1,1,0,0,0,1-1V61h5a1,1,0,0,0,1-1V59h6.7l5.748,3.832A1,1,0,0,0,30,63a1.038,1.038,0,0,0,.214-.023l32-7A1,1,0,0,0,63,55V54A5.006,5.006,0,0,0,58,49ZM9,61H3V41H9V61Zm6-2H11V41h4Zm46-4.8L30.2,60.933l-5.646-3.765A1.006,1.006,0,0,0,24,57H17V43H27.54l5.219,6.089A1,1,0,0,1,33,49.74V51a1,1,0,0,1-1,1H30.829a1,1,0,0,1-.708-.293l-4.414-4.414-1.414,1.414,4.414,4.414A2.978,2.978,0,0,0,30.829,54H32a3,3,0,0,0,3-3H58a3,3,0,0,1,3,3Z"/><path d="M62,31H60V9a3,3,0,0,0-3-3H49.946a.792.792,0,0,0-.047-.071L47.071,3.1a1,1,0,0,0-1.414,0L44.619,4.138A9.941,9.941,0,0,0,43,3.466V2a1,1,0,0,0-1-1H38a1,1,0,0,0-1,1V3.466a9.941,9.941,0,0,0-1.619.672L34.343,3.1a1,1,0,0,0-1.414,0L30.1,5.929A.792.792,0,0,0,30.054,6H23a3,3,0,0,0-3,3v6H2a1,1,0,0,0-1,1V28a1,1,0,0,0,1,1H20v2H18a1,1,0,0,0-1,1v4a3,3,0,0,0,3,3H60a3,3,0,0,0,3-3V32A1,1,0,0,0,62,31ZM58,9V31H56V11a1,1,0,0,0-1-1H49.534a9.941,9.941,0,0,0-.672-1.619L49.243,8H57A1,1,0,0,1,58,9ZM27,28V16a1,1,0,0,0-1-1V12h2v3a1,1,0,0,0,1,1h1.466a9.941,9.941,0,0,0,.672,1.619L30.1,18.657a1,1,0,0,0,0,1.414L32.929,22.9a1,1,0,0,0,1.414,0l1.038-1.038A9.931,9.931,0,0,0,37,22.534V24a1,1,0,0,0,1,1h4a1,1,0,0,0,1-1V22.534a9.931,9.931,0,0,0,1.619-.673L45.657,22.9a1,1,0,0,0,1.414,0L49.9,20.071a1,1,0,0,0,0-1.414l-1.037-1.038A9.941,9.941,0,0,0,49.534,16H51a1,1,0,0,0,1-1V12h2V31H26V29A1,1,0,0,0,27,28Zm5.206-16.778a7.917,7.917,0,0,1,1.027-2.473,1,1,0,0,0-.139-1.241l-.872-.872,1.414-1.414.872.872a1,1,0,0,0,1.241.139,7.917,7.917,0,0,1,2.473-1.027A1,1,0,0,0,39,4.23V3h2V4.23a1,1,0,0,0,.778.976,7.917,7.917,0,0,1,2.473,1.027,1,1,0,0,0,1.241-.139l.872-.872,1.414,1.414-.872.872a1,1,0,0,0-.139,1.241,7.917,7.917,0,0,1,1.027,2.473A1,1,0,0,0,48.77,12H50v2H48.77a1,1,0,0,0-.976.778,7.917,7.917,0,0,1-1.027,2.473,1,1,0,0,0,.139,1.241l.872.872-1.414,1.414-.872-.872a1,1,0,0,0-1.24-.139,7.933,7.933,0,0,1-2.473,1.027,1,1,0,0,0-.779.975V23H39V21.769a1,1,0,0,0-.779-.975,7.933,7.933,0,0,1-2.473-1.027,1,1,0,0,0-1.24.139l-.872.872-1.414-1.414.872-.872a1,1,0,0,0,.139-1.241,7.917,7.917,0,0,1-1.027-2.473A1,1,0,0,0,31.23,14H30V12h1.23A1,1,0,0,0,32.206,11.222ZM22,9a1,1,0,0,1,1-1h7.757l.381.381A9.941,9.941,0,0,0,30.466,10H25a1,1,0,0,0-1,1v4H22ZM3,17H25V27H3ZM22,29h2v2H22Zm39,7a1,1,0,0,1-1,1H20a1,1,0,0,1-1-1V33H61Z"/><path d="M40,19a6,6,0,1,0-6-6A6.006,6.006,0,0,0,40,19ZM40,9a4,4,0,1,1-4,4A4,4,0,0,1,40,9Z"/><path d="M8.293,18.293l-3,3a1,1,0,0,0,0,1.414l3,3,1.414-1.414L7.414,22l2.293-2.293Z"/><path d="M19.707,18.293l-1.414,1.414L20.586,22l-2.293,2.293,1.414,1.414,3-3a1,1,0,0,0,0-1.414Z"/><rect x="9.528" y="21" width="8.944" height="2" transform="translate(-11.938 24.683) rotate(-63.435)"/></svg>
