<svg id="Layer_1" enable-background="new 0 0 512 512" viewBox="0 0 512 512" xmlns="http://www.w3.org/2000/svg"><path d="m395.751 389.681-92.341 25.121c-4.023 1.094-7.958 1.649-11.885 1.659 1.834-1.906 3.484-4.107 4.921-6.596 8.343-14.451 3.455-33.179-11.128-42.636-.303-.196-.618-.372-.944-.525-21.795-10.267-42.231-24.511-58.652-35.956-5.718-3.985-11.119-7.749-15.767-10.764-18.901-12.264-39.758-8.979-57.667-4.152l-67.992 18.328-2.094-8.094c-1.347-5.204-4.65-9.579-9.302-12.318-4.652-2.738-10.08-3.506-15.284-2.159l-25.809 6.679c-5.204 1.346-9.579 4.649-12.319 9.302-2.739 4.651-3.506 10.08-2.16 15.283l34.694 134.074c1.347 5.204 4.65 9.579 9.302 12.318 3.154 1.857 6.664 2.809 10.22 2.809 1.689-.001 3.388-.215 5.064-.648l25.81-6.679c5.204-1.347 9.579-4.65 12.318-9.303 2.74-4.651 3.507-10.08 2.16-15.283l-4.106-15.868 14.743-3.95 94.721 54.688c10.307 5.952 21.288 8.959 32.439 8.958 6.15 0 12.354-.915 18.521-2.755l168.87-50.417c15.722-4.693 25.621-24.463 20.769-41.478-2.355-8.25-14.148-34.043-67.102-19.638zm-294.802 77.625c-.331.561-1.101 1.559-2.54 1.931l-25.81 6.679c-1.439.372-2.595-.126-3.157-.457-.561-.33-1.559-1.1-1.931-2.539l-34.693-134.076c-.372-1.438.126-2.595.457-3.155.331-.562 1.1-1.559 2.54-1.931l25.81-6.679c.362-.094.706-.133 1.027-.133.956 0 1.71.342 2.13.59.561.33 1.558 1.1 1.93 2.538l34.694 134.075c.372 1.439-.127 2.595-.457 3.157zm336.556-31.842-168.87 50.417c-13.212 3.944-26.125 2.352-38.382-4.727l-97.591-56.345c-1.837-1.062-4.021-1.35-6.07-.8l-17.811 4.772-20.476-79.13 68.148-18.37c15.233-4.107 31.202-6.692 44.795 2.126 4.425 2.87 9.477 6.391 15.325 10.467 16.784 11.698 37.639 26.234 60.447 37.052 7.243 4.961 9.646 13.88 5.57 20.939-4.951 8.576-12.756 8.387-19.019 6.303-12.356-6.035-23.2-12.508-34.564-19.291-4.906-2.929-9.979-5.957-15.34-9.053-3.827-2.207-8.72-.898-10.928 2.929-2.209 3.826-.898 8.72 2.928 10.929 5.261 3.036 10.283 6.034 15.139 8.934 10.836 6.469 21.212 12.662 32.962 18.555.589.469 8.605 4.153 11.207 5.316 14.365 6.421 28.31 7.649 42.635 3.755l92.341-25.121c26.188-7.125 43.948-3.913 47.513 8.586 2.446 8.574-2.58 19.555-9.959 21.757zm-376.262-87.479c-.532 4.544-4.648 7.796-9.192 7.264s-7.796-4.648-7.263-9.192c.532-4.544 4.647-7.796 9.191-7.264 4.544.533 7.796 4.648 7.264 9.192zm429.222-277.756-143.692-61.582c-2.013-.862-4.29-.862-6.303 0l-143.692 61.582c-2.941 1.261-4.849 4.153-4.849 7.353v116.189c0 43.311 14.824 82.953 42.869 114.641 27.013 30.521 65.173 51.389 107.45 58.758.454.079.914.119 1.374.119s.919-.04 1.374-.119c42.277-7.369 80.437-28.236 107.45-58.758 28.045-31.688 42.869-71.331 42.869-114.641v-116.189c-.001-3.2-1.908-6.092-4.85-7.353zm-11.151 123.542c0 78.3-55.724 142.833-135.692 157.392-79.969-14.56-135.692-79.092-135.692-157.392v-110.914l135.692-58.153 135.692 58.153zm-138.844-152.485-113.692 48.724c-2.941 1.26-4.849 4.153-4.849 7.353v96.408c0 70.509 48.251 127.902 120.066 142.814.537.111 1.082.167 1.626.167s1.09-.056 1.626-.167c71.815-14.912 120.066-72.305 120.066-142.814v-96.408c0-3.2-1.907-6.093-4.849-7.353l-113.691-48.724c-2.013-.862-4.29-.862-6.303 0zm108.844 61.353v91.132c0 62.19-42.402 112.952-105.693 126.801-63.29-13.85-105.692-64.611-105.692-126.801v-91.132l105.692-45.296zm-196.476 74.532c0 50.058 40.725 90.783 90.783 90.783s90.783-40.725 90.783-90.783-40.725-90.783-90.783-90.783c-50.058.001-90.783 40.726-90.783 90.783zm165.566 0c0 41.235-33.547 74.783-74.783 74.783s-74.783-33.547-74.783-74.783 33.547-74.783 74.783-74.783c41.236.001 74.783 33.548 74.783 74.783zm-98.496-16.852c-7.907-7.906-20.771-7.906-28.679 0-7.906 7.907-7.906 20.772 0 28.678l27.207 27.206c3.83 3.83 8.922 5.939 14.339 5.939 5.417 0 10.509-2.109 14.338-5.939 10.315-10.315 20.718-20.866 30.778-31.07 6.056-6.142 12.111-12.284 18.182-18.411 7.853-7.925 7.811-20.769-.094-28.629-3.824-3.804-8.895-5.895-14.287-5.895-.026 0-.053 0-.08 0-5.413.021-10.49 2.148-14.295 5.992l-34.597 34.942zm12.861 32.155c2.128-.005 4.167-.859 5.665-2.371l40.253-40.655c.794-.802 1.855-1.246 2.988-1.25h.017c1.135 0 2.202.44 3.006 1.24 1.661 1.651 1.666 4.353.012 6.022-6.08 6.136-12.145 12.288-18.21 18.439-10.041 10.185-20.423 20.715-30.699 30.99-.807.808-1.881 1.252-3.025 1.252-1.143 0-2.218-.445-3.025-1.252l-27.207-27.206c-1.668-1.668-1.668-4.383 0-6.051.834-.834 1.93-1.251 3.025-1.251s2.191.417 3.026 1.251l18.497 18.498c1.5 1.5 3.535 2.343 5.657 2.343.006.001.013.001.02.001z"/></svg>