<svg id="Outline" height="512" viewBox="0 0 32 32" width="512" xmlns="http://www.w3.org/2000/svg"><g><path d="m29 0h-26c-1.6543 0-3 1.3457-3 3v12.34961c0 .55273.44775 1 1 1s1-.44727 1-1v-12.34961c0-.55176.44873-1 1-1h26c.55127 0 1 .44824 1 1v26c0 .55176-.44873 1-1 1h-12.3501c-.55225 0-1 .44727-1 1s.44775 1 1 1h12.3501c1.6543 0 3-1.3457 3-3v-26c0-1.6543-1.3457-3-3-3z"/><path d="m11 18h-8c-1.6543 0-3 1.3457-3 3v8c0 1.6543 1.3457 3 3 3h8c1.6543 0 3-1.3457 3-3v-8c0-1.6543-1.3457-3-3-3zm1 11c0 .55176-.44873 1-1 1h-8c-.55127 0-1-.44824-1-1v-8c0-.55176.44873-1 1-1h8c.55127 0 1 .44824 1 1z"/><path d="m16.70703 16.70703 6.29297-6.29297v1.58594c0 .55273.44775 1 1 1s1-.44727 1-1c0 0 0-3.99894 0-4 0-.53568-.45605-1-1-1h-4c-.55225 0-1 .44727-1 1s.44775 1 1 1h1.58594l-6.29297 6.29297c-.39062.39062-.39063 1.02343-.00001 1.41405.37755.37756 1.02431.38977 1.41407.00001z"/></g></svg>