<svg enable-background="new 0 0 512 512" height="512" viewBox="0 0 512 512" width="512" xmlns="http://www.w3.org/2000/svg"><g id="_x32_2_Premium_Service"><g><path d="m314.912 15.959v-7.743c0-3.31-2.685-5.995-5.995-5.995s-5.995 2.685-5.995 5.995v7.743c0 3.31 2.685 5.995 5.995 5.995s5.995-2.685 5.995-5.995z"/><g><path d="m93.326 355.605c-10.944-8.314-27.52-7.643-37.399 2.243l-40.215 40.207c-1.124 1.124-1.756 2.646-1.756 4.238s.632 3.114 1.756 4.238l101.497 101.49c2.343 2.343 6.135 2.342 8.477 0l40.207-40.207c9.704-9.704 10.902-24.743 3.603-35.77l5.928-5.928c5.792-5.792 14.511-7.735 22.246-4.91l45.086 16.384c45.882 16.654 76.068-10.177 131.619-27.031 14.581-5.417 27.468-14.675 37.272-26.797l80.016-99.202c5.878-7.33 7.814-16.72 5.308-25.767-2.506-9.031-9-16.08-17.742-19.311-10.655-4.098-23.893-1.186-32.042 7.103l-72.301 72.076c-8.783-11.954-23.615-18.612-38.782-16.453l-43.868 6.315c-15.143 2.147-30.333-.468-43.915-7.603l-1.366-.726c-28.803-15.159-64.163-12.294-90.093 7.322zm64.091 103.733-35.969 35.969-93.02-93.013 35.976-35.969c6.198-6.221 17.024-6.213 23.222 0l69.791 69.783c6.401 6.409 6.401 16.821 0 23.23zm83.942-148.534 1.374.726c15.838 8.313 33.541 11.365 51.197 8.859l43.876-6.315c12.731-1.811 25.166 5.066 30.473 16.712 1.499 3.239 1.475 6.97-.062 10.225-1.561 3.302-4.473 5.722-7.993 6.65l-82.889 21.661c-3.208.835-5.121 4.114-4.285 7.314.838 3.212 4.128 5.119 7.314 4.285l82.896-21.661c6.963-1.834 12.723-6.619 15.799-13.137 2.419-5.122 2.866-10.828 1.504-16.193l75.133-74.891c4.933-5.035 12.731-6.869 19.303-4.34 5.16 1.912 8.961 6.026 10.421 11.303 1.467 5.277.328 10.764-3.099 15.042l-80 99.187c-8.446 10.444-19.553 18.421-32.128 23.097-57.361 17.771-83.081 41.581-123.345 26.992l-45.086-16.384c-12.099-4.395-25.751-1.358-34.813 7.704l-5.523 5.523-59.241-59.235 61.907-46.848c22.245-16.814 52.57-19.273 77.267-6.276z"/><path d="m207.967 135.191 96.174 125.297c2.582 3.372 7.327 2.833 9.507 0l96.221-125.297c1.841-2.395 1.293-4.469.172-7.033-11.583-16.622-30.791-44.406-32.307-46.353-1.202-1.533-3.048-2.331-4.677-2.331-80.654-.079-51.3-.062-128.263-.062-.008 0-.008 0-.008 0-1.882 0-3.591.917-4.711 2.376-.066.084-.177.111-.238.2l-32.042 46.108c-1.431 2.049-1.277 5.208.172 7.095zm64.24 2.377 23.652 92.442-70.978-92.476c.821 0 50.494.036 47.326.034zm121.412-12.025c-.809 0-43.82-.017-41.107-.016l20.547-29.567zm-105.239-.015 20.547-29.567 20.56 29.583c-.808-.001-43.819-.017-41.107-.016zm44.875 12.037-24.345 95.088-24.338-95.12c.82 0 51.851.034 48.683.032zm12.381-.032c.821 0 50.464.029 47.297.027l-70.955 92.395zm15.885-46.077-20.547 29.567-20.582-29.614zm-64.132 0-20.547 29.567-20.582-29.614zm-52.626 4.457 20.593 29.63c-.809 0-43.889-.017-41.177-.016z"/><path d="m443.004 148.305c3.31 0 5.995-2.685 5.995-5.995s-2.685-5.995-5.995-5.995h-7.735c-3.31 0-5.995 2.685-5.995 5.995s2.685 5.995 5.995 5.995z"/><path d="m182.567 148.297c3.31 0 5.995-2.685 5.995-5.995s-2.685-5.995-5.995-5.995h-7.735c-3.31 0-5.995 2.685-5.995 5.995s2.685 5.995 5.995 5.995z"/><path d="m402.5 57.205 5.472-5.472c2.342-2.342 2.342-6.135 0-8.477s-6.135-2.342-8.477 0l-5.472 5.472c-2.342 2.342-2.342 6.135 0 8.477s6.135 2.341 8.477 0z"/><path d="m215.335 227.408-5.472 5.472c-2.342 2.342-2.342 6.135 0 8.477 2.343 2.343 6.135 2.342 8.477 0l5.472-5.472c2.342-2.342 2.342-6.135 0-8.477s-6.135-2.342-8.477 0z"/><path d="m394.023 227.408c-2.342 2.342-2.342 6.135 0 8.477l5.472 5.472c2.343 2.343 6.135 2.342 8.477 0s2.342-6.135 0-8.477l-5.472-5.472c-2.342-2.342-6.135-2.342-8.477 0z"/><path d="m223.82 57.197c2.342-2.342 2.342-6.135 0-8.477l-5.472-5.472c-2.342-2.342-6.135-2.342-8.477 0s-2.342 6.135 0 8.477l5.472 5.472c2.343 2.342 6.135 2.342 8.477 0z"/></g></g></g></svg>