<svg id="Layer_1" enable-background="new 0 0 512 512" height="512" viewBox="0 0 512 512" width="512" xmlns="http://www.w3.org/2000/svg"><path d="m501.151 334.808c-3.532-10.428-11.968-18-23.754-21.323-12.681-3.577-29.175-2.438-49.024 3.386l-90.353 26.507c-.38-.772-.787-1.537-1.222-2.29-5.046-8.739-13.162-14.982-22.854-17.579l-64.19-17.2c-46.843-32.823-71.947-23.396-108.864-5.344-17.657 8.633-35.204 16.985-51.795 24.826l-3.479-8.354c-4.616-11.084-17.392-16.355-28.484-11.753l-34.673 14.399c-5.406 2.243-9.603 6.437-11.818 11.806-2.216 5.37-2.197 11.303.054 16.706l58.715 140.99c3.483 8.363 11.61 13.418 20.155 13.417 2.78 0 5.606-.535 8.328-1.666l34.674-14.398c5.405-2.245 9.602-6.438 11.817-11.808 2.215-5.369 2.196-11.302-.054-16.705l-3.933-9.444 22.599-10.989c8.254-4.013 16.551-4.72 25.367-2.16l72.123 20.941c5.31 1.542 10.797 2.201 16.365 2.201 19.169-.001 39.27-7.822 56.166-14.398 1.489-.579 139.735-53.858 139.735-53.858 21.915-8.445 35.45-35.093 28.399-55.91zm-369.708 134.983c-.788 1.91-2.295 3.407-4.245 4.217l-34.674 14.398c-3.969 1.645-8.539-.238-10.19-4.204l-58.715-140.99c-.812-1.948-.824-4.073-.036-5.983.788-1.909 2.295-3.406 4.245-4.216l34.673-14.399c.974-.404 1.984-.596 2.979-.596 3.057 0 5.966 1.809 7.212 4.801l58.715 140.989c.811 1.948.824 4.073.036 5.983zm336.276-92.138s-138.275 53.291-139.778 53.876c-19.834 7.72-44.518 17.325-63.551 11.799l-72.122-20.941c-12.128-3.521-24.036-2.507-35.393 3.016l-21.869 10.633-40.524-97.307c16.812-7.944 34.616-16.415 52.556-25.188 34.504-16.871 54.429-24.315 95.65 4.917.678.48 1.435.837 2.238 1.052l65.394 17.522c6.08 1.629 11.177 5.555 14.353 11.056s4.028 11.879 2.398 17.958c-1.629 6.079-5.555 11.177-11.057 14.353-5.501 3.176-11.879 4.028-17.958 2.398l-86.906-23.286c-3.731-.996-7.572 1.215-8.573 4.95-1 3.734 1.216 7.572 4.95 8.573l86.906 23.286c9.691 2.595 19.842 1.248 28.582-3.798 8.74-5.045 14.983-13.162 17.58-22.854 1.134-4.23 1.516-8.549 1.166-12.799l90.553-26.565c29.92-8.776 50.696-5.414 55.577 8.995 4.624 13.652-5.368 32.65-20.172 38.354zm-47.206-284.881c23.098 0 41.89-18.791 41.89-41.889-.001-23.094-18.792-41.883-41.89-41.883s-41.889 18.789-41.889 41.884c0 23.097 18.791 41.888 41.889 41.888zm0-69.772c15.378 0 27.89 12.509 27.89 27.884 0 15.378-12.511 27.889-27.89 27.889-15.378 0-27.889-12.511-27.889-27.889 0-15.375 12.511-27.884 27.889-27.884zm-262.243 177.672c14.917 13.507 45.359 18.935 73.306 18.935 5.1 0 10.115-.185 14.94-.531 3.565 6.473 10.917 13.185 25.168 18.431 14.446 5.318 33.736 8.248 54.316 8.248 34.483 0 69.222-8.348 79.466-26.68 4.831.346 9.85.532 14.958.532 27.945-.001 58.391-5.429 73.307-18.935 6.062-5.488 9.266-12.166 9.266-19.31 0-45.482-37.002-82.484-82.484-82.484-25.477 0-49.343 11.727-64.939 31.629-9.186-3.541-19.151-5.502-29.57-5.502-10.421 0-20.386 1.962-29.574 5.503-15.596-19.902-39.461-31.63-64.937-31.63-45.484 0-82.489 37.002-82.489 82.484-.001 7.144 3.204 13.822 9.266 19.31zm262.243-87.794c37.762 0 68.484 30.722 68.484 68.484 0 3.169-1.525 6.091-4.663 8.932-11.995 10.86-43.805 16.977-75.904 14.956-.779-29.013-16.591-54.339-39.935-68.428 12.947-15.113 31.876-23.944 52.018-23.944zm-26.026 94.61c0 13.607-30.083 24.267-68.487 24.267s-68.487-10.659-68.487-24.267c0-37.762 30.724-68.483 68.49-68.483 37.762 0 68.484 30.722 68.484 68.483zm-162.995-94.61c20.14 0 39.069 8.831 52.016 23.943-23.346 14.09-39.159 39.415-39.938 68.428-32.1 2.021-63.909-4.096-75.904-14.956-3.137-2.841-4.663-5.763-4.663-8.932 0-37.761 30.725-68.483 68.489-68.483zm0-20.106c23.098 0 41.89-18.791 41.89-41.889 0-23.094-18.792-41.883-41.89-41.883s-41.889 18.789-41.889 41.884c0 23.097 18.792 41.888 41.889 41.888zm0-69.772c15.378 0 27.89 12.509 27.89 27.884 0 15.378-12.511 27.889-27.89 27.889-15.378 0-27.889-12.511-27.889-27.889 0-15.375 12.511-27.884 27.889-27.884zm94.511 95.898c23.098 0 41.889-18.791 41.889-41.889 0-23.095-18.791-41.884-41.889-41.884s-41.889 18.789-41.889 41.884c0 23.098 18.791 41.889 41.889 41.889zm0-69.772c15.378 0 27.889 12.509 27.889 27.884 0 15.378-12.511 27.889-27.889 27.889s-27.889-12.511-27.889-27.889c0-15.375 12.511-27.884 27.889-27.884z"/></svg>