<svg id="Line" height="512" viewBox="0 0 64 64" width="512" xmlns="http://www.w3.org/2000/svg"><path d="m6 53.12988h6.25c1.26605 0 2.3457-.79083 2.7854-1.90234h.94507c.37988 0 .74219.09863 1.07666.29346l7.71924 4.5c4.14463 2.42266 9.20666 2.63125 13.5332.58057 1.17554-.57214.33153-2.35751-.8565-1.80759-3.73871 1.77195-8.10004 1.58445-11.66889-.50002l-7.72021-4.50049c-.63477-.37012-1.35547-.56592-2.0835-.56592h-.73047s0-7.22754 0-7.22754c0-.55225-.44775-1-1-1s-1 .44775-1 1v8.12988c0 .56055-.43945 1-1 1h-6.25v-15.03027h6.25c.54004 0 .9707.41162 1.00146.95703.00957.12189.06481.22916.09001.34516.16901.36271.52382.56873.91293.59818-.00002.00002 8.30223.00002 8.30223.00002 1.39209 0 2.74902.39453 3.92432 1.14062l3.5752 2.26904c.82812.52588 1.78467.80371 2.76611.80371h7.22803c3.242.08255 3.25644 4.84289-.00008 4.9292h-10.34611c-.55225 0-1 .44775-1 1s.44775 1 1 1h10.34619c2.28156 0 4.14728-1.72662 4.41156-3.93781l11.07233-3.21649c2.24056-.62687 3.48094 2.58699 1.35733 3.59767.00009-.00002-14.91983 7.06981-14.91983 7.06981-.49902.23682-.71191.83301-.47559 1.33203.23704.50447.84438.70937 1.33203.47558 0 0 14.91748-7.06884 14.91748-7.06884 3.7518-1.73784 2.46626-7.50365-1.67591-7.48483-.20104-.2559-11.3313 3.19028-11.83002 3.27671-.61724-1.72676-2.2531-2.97303-4.18938-2.97303h-7.22803c-.60107 0-1.18701-.17041-1.69434-.49219l-3.57471-2.26904c-1.49658-.9502-3.22412-1.45215-4.99658-1.45215h-7.52844c-.44482-1.11462-1.52075-1.90039-2.7782-1.90039h-6.25c-1.10303 0-2 .89697-2 2v15.03027c0 1.10303.89697 2 2 2z"/><path d="m8.62708 39.31415c.02229 1.31445 1.97793 1.31421 2.00006-.00004-.02233-1.31443-1.97794-1.3143-2.00006.00004z"/><path d="m16.92578 28.04541-.61963 3.61084c-.06396.375.09033.75439.39795.97803.30811.22412.71729.25293 1.05322.07617l3.24268-1.70459 3.24268 1.70459c.33623.17638.74418.14804 1.05322-.07617.30762-.22363.46191-.60303.39795-.97803l-.61963-3.61084 2.62402-2.55713c.27246-.26611.37061-.66309.25293-1.02539-.11768-.36182-.43066-.62598-.80713-.68066l-3.62598-.52686-1.62109-3.28516c-.33691-.68262-1.45703-.68262-1.79395 0l-1.62109 3.28516-3.62598.52686c-.37646.05469-.68945.31885-.80713.68066-.11768.3623-.01953.75928.25293 1.02539l2.62402 2.55713zm2.36426-2.88623c.32568-.04736.60693-.25195.75293-.54736l.95703-1.93945.95703 1.93945c.146.29541.42725.5.75293.54736l2.14111.31104-1.54932 1.50977c-.23535.22998-.34277.56104-.2876.88525l.36572 2.13232c-.34503-.13637-2.01744-1.18148-2.37986-1.12161-.35501-.06198-2.04781.99031-2.37993 1.12158.00002.00004.36574-2.13229.36574-2.13229.05518-.32422-.05225-.65527-.2876-.88525l-1.54932-1.50977 2.14111-.31104z"/><path d="m30.85596 23.78223c-.79729.09053-1.14864 1.16335-.55416 1.70607-.00004-.00001 2.62398 2.55712 2.62398 2.55712l-.61963 3.61084c-.06396.375.09033.75439.39795.97803.30957.22412.71729.25293 1.05322.07617l3.24268-1.70459 3.24268 1.70459c.69711.39554 1.61314-.26562 1.45115-1.05423.00003.00003-.6196-3.61081-.6196-3.61081l2.62402-2.55713c.59198-.5417.24554-1.61663-.55424-1.70604.00004-.00001-3.62594-.52687-3.62594-.52687l-1.62109-3.28516c-.33691-.68262-1.45703-.68262-1.79395 0l-1.62109 3.28516-3.62598.52686zm5.18701.82959.95703-1.93945.95703 1.93945c.146.29541.42725.5.75293.54736l2.14111.31104-1.54932 1.50977c-.23535.22998-.34277.56104-.2876.88525l.36572 2.13232-1.91455-1.00684c-.29122-.15306-.63945-.15307-.93066 0 0 0-1.91455 1.00684-1.91455 1.00684l.36572-2.13232c.05518-.32422-.05225-.65527-.2876-.88525l-1.54932-1.50977 2.14111-.31104c.32568-.04736.60693-.25195.75293-.54736z"/><path d="m46.85596 23.78223c-.79729.09053-1.14864 1.16335-.55416 1.70607-.00004-.00001 2.62398 2.55712 2.62398 2.55712l-.61963 3.61084c-.06396.375.09033.75439.39795.97803.30859.22412.7168.25293 1.05322.07617l3.24268-1.70459 3.24268 1.70459c.69711.39554 1.61314-.26562 1.45115-1.05423.00003.00003-.6196-3.61081-.6196-3.61081l2.62402-2.55713c.59198-.5417.24554-1.61663-.55424-1.70604.00004-.00001-3.62594-.52687-3.62594-.52687l-1.62109-3.28516c-.33691-.68262-1.45703-.68262-1.79395 0l-1.62109 3.28516-3.62598.52686zm5.18701.82959.95703-1.93945.95703 1.93945c.146.29541.42725.5.75293.54736l2.14111.31104-1.54932 1.50977c-.23535.22998-.34277.56104-.2876.88525l.36572 2.13232-1.91455-1.00684c-.29122-.15306-.63945-.15307-.93066 0 0 0-1.91455 1.00684-1.91455 1.00684l.36572-2.13232c.05518-.32422-.05225-.65527-.2876-.88525l-1.54932-1.50977 2.14111-.31104c.32568-.04736.60693-.25195.75293-.54736z"/><path d="m24.92578 14.63281-.61963 3.61084c-.06396.375.09033.75439.39795.97803.30859.22412.7168.25293 1.05322.07617l3.24268-1.70459 3.24268 1.70459c.33623.17638.74418.14804 1.05322-.07617.30762-.22363.46191-.60303.39795-.97803l-.61963-3.61084 2.62402-2.55713c.27246-.26611.37061-.66309.25293-1.02539-.11768-.36182-.43066-.62598-.80713-.68066l-3.62598-.52686-1.62109-3.28516c-.33691-.68262-1.45703-.68262-1.79395 0l-1.62109 3.28516-3.62598.52686c-.37646.05469-.68945.31885-.80713.68066-.11768.3623-.01953.75928.25293 1.02539l2.62402 2.55713zm2.36426-2.88623c.32568-.04736.60693-.25195.75293-.54736l.95703-1.93945.95703 1.93945c.146.29541.42725.5.75293.54736l2.14111.31104-1.54932 1.50977c-.23535.22998-.34277.56104-.2876.88525l.36572 2.13232c-.34503-.13637-2.01744-1.18148-2.37986-1.12161-.35501-.06198-2.04781.99031-2.37993 1.12158.00002.00004.36574-2.13229.36574-2.13229.05518-.32422-.05225-.65527-.2876-.88525l-1.54932-1.50977 2.14111-.31104z"/><path d="m40.92578 14.63281-.61963 3.61084c-.06396.375.09033.75439.39795.97803.30908.22412.71631.25293 1.05322.07617l3.24268-1.70459 3.24268 1.70459c.33623.17638.74418.14804 1.05322-.07617.30762-.22363.46191-.60303.39795-.97803l-.61963-3.61084 2.62402-2.55713c.27246-.26611.37061-.66309.25293-1.02539-.11768-.36182-.43066-.62598-.80713-.68066l-3.62598-.52686-1.62109-3.28516c-.33691-.68262-1.45703-.68262-1.79395 0l-1.62109 3.28516-3.62598.52686c-.37646.05469-.68945.31885-.80713.68066-.11768.3623-.01953.75928.25293 1.02539l2.62402 2.55713zm2.36426-2.88623c.32568-.04736.60693-.25195.75293-.54736l.95703-1.93945.95703 1.93945c.146.29541.42725.5.75293.54736l2.14111.31104-1.54932 1.50977c-.23535.22998-.34277.56104-.2876.88525l.36572 2.13232c-.34503-.13637-2.01744-1.18148-2.37986-1.12161-.35501-.06198-2.04781.99031-2.37993 1.12158.00002.00004.36574-2.13229.36574-2.13229.05518-.32422-.05225-.65527-.2876-.88525l-1.54932-1.50977 2.14111-.31104z"/></svg>