<?xml version="1.0" encoding="UTF-8" standalone="no"?>
<!-- Created with Inkscape (http://www.inkscape.org/) -->

<svg
   version="1.1"
   id="svg117"
   xml:space="preserve"
   width="682.66669"
   height="682.66669"
   viewBox="0 0 682.66669 682.66669"
   xmlns="http://www.w3.org/2000/svg"
   xmlns:svg="http://www.w3.org/2000/svg"><defs
     id="defs121"><clipPath
       clipPathUnits="userSpaceOnUse"
       id="clipPath131"><path
         d="M 0,512 H 512 V 0 H 0 Z"
         id="path129" /></clipPath></defs><g
     id="g123"
     transform="matrix(1.3333333,0,0,-1.3333333,0,682.66667)"><g
       id="g125"><g
         id="g127"
         clip-path="url(#clipPath131)"><g
           id="g133"
           transform="translate(79.2666,219.5488)"><path
             d="M 0,0 C 0.313,-48.321 20.051,-92.062 51.791,-123.802 L 6.354,-169.238 C -37.267,-125.617 -64.267,-65.367 -64.267,1.141 H 0 Z m 176.733,177.874 c -48.77,0 -92.953,-19.794 -124.942,-51.791 L 6.354,171.52 c 43.622,43.621 103.872,70.621 170.379,70.621 z"
             style="fill:none;stroke:#000000;stroke-width:30;stroke-linecap:round;stroke-linejoin:round;stroke-miterlimit:10;stroke-dasharray:none;stroke-opacity:1"
             id="path135" /></g><g
           id="g137"
           transform="translate(85.6211,391.0688)"><path
             d="M 0,0 45.437,-45.437 C 13.439,-77.425 -6.354,-121.609 -6.354,-170.379 h -64.267 c 0,66.507 27,126.757 70.621,170.379 z"
             style="fill:none;stroke:#000000;stroke-width:30;stroke-linecap:round;stroke-linejoin:round;stroke-miterlimit:10;stroke-dasharray:none;stroke-opacity:1"
             id="path139" /></g><g
           id="g141"
           transform="translate(432.7334,219.5488)"><path
             d="m 0,0 c -0.313,-48.321 -20.052,-92.062 -51.791,-123.802 l 45.437,-45.436 C 37.267,-125.617 64.267,-65.367 64.267,1.141 H 0 Z m -176.733,177.874 c 48.77,0 92.954,-19.794 124.942,-51.791 l 45.437,45.437 c -43.622,43.621 -103.872,70.621 -170.379,70.621 z"
             style="fill:none;stroke:#000000;stroke-width:30;stroke-linecap:round;stroke-linejoin:round;stroke-miterlimit:10;stroke-dasharray:none;stroke-opacity:1"
             id="path143" /></g><g
           id="g145"
           transform="translate(426.3789,391.0688)"><path
             d="M 0,0 -45.437,-45.437 C -13.439,-77.425 6.354,-121.609 6.354,-170.379 H 70.621 C 70.621,-103.872 43.621,-43.622 0,0 Z"
             style="fill:none;stroke:#000000;stroke-width:30;stroke-linecap:round;stroke-linejoin:round;stroke-miterlimit:10;stroke-dasharray:none;stroke-opacity:1"
             id="path147" /></g><g
           id="g149"
           transform="translate(233.2817,197.9712)"><path
             d="m 0,0 c -12.54,12.54 -12.54,32.896 0,45.437 12.54,12.54 32.896,12.54 45.437,0 22.726,-22.719 102.248,-147.685 102.248,-147.685 0,0 -124.967,79.521 -147.685,102.248 z"
             style="fill:none;stroke:#000000;stroke-width:30;stroke-linecap:round;stroke-linejoin:round;stroke-miterlimit:10;stroke-dasharray:none;stroke-opacity:1"
             id="path151" /></g></g></g></g></svg>
