<svg id="Line" enable-background="new 0 0 100 100" height="512" viewBox="0 0 100 100" width="512" xmlns="http://www.w3.org/2000/svg"><path d="m50 12.925c-11.535 0-21.995 4.678-29.593 12.232-.033.029-.075.039-.106.07s-.041.073-.07.106c-7.553 7.597-12.231 18.057-12.231 29.592 0 10.146 3.665 19.939 10.324 27.58.81.933 2.214 1.033 3.149.24l8.777-7.436c.963-.811 1.068-2.262.234-3.205-4.184-4.746-6.486-10.849-6.486-17.18 0-14.338 11.663-26.001 26.001-26.001 5.968 0 11.801 2.074 16.418 5.836 2.297 1.875 5.15-1.606 2.842-3.486-4.835-3.943-10.805-6.29-17.01-6.752v-6.983c19.63 1.174 35.251 17.469 35.251 37.387 0 8.303-2.751 16.348-7.79 22.884l-5.358-4.518c3.981-5.273 6.149-11.71 6.149-18.366 0-2.959-.425-5.889-1.263-8.71-.858-2.873-5.153-1.544-4.313 1.283.712 2.402 1.075 4.901 1.075 7.427 0 6.328-2.3 12.428-6.478 17.171-.829.937-.736 2.388.237 3.208l8.792 7.415c.938.794 2.344.683 3.146-.243 6.644-7.635 10.303-17.42 10.303-27.551 0-23.159-18.841-42-42-42zm-19.89 18.926-4.947-4.946c6.095-5.409 13.944-8.85 22.587-9.367v6.999c-6.717.495-12.828 3.16-17.64 7.314zm-4.45 41.452-5.35 4.532c-4.593-5.949-7.266-13.152-7.717-20.66h6.998c.432 5.851 2.533 11.448 6.069 16.128zm-6.047-20.628h-6.999c.517-8.644 3.958-16.493 9.367-22.588l4.947 4.945c-4.155 4.813-6.821 10.925-7.315 17.643z"/><path d="m55.092 66.377c2.118-2.121 19.644-25.102 21.636-27.715 1.54-2.022-.959-4.636-3.038-3.234-4.518 3.009-27.167 18.135-29.291 20.259-2.947 2.947-2.947 7.743 0 10.69 2.941 2.941 7.739 2.953 10.693 0zm-7.512-7.509c.984-.97 8.988-6.483 17.25-12.073-6.082 7.904-11.938 15.416-12.92 16.4-2.863 2.864-7.194-1.463-4.33-4.327z"/><path d="m42.257 78.55h15.486c2.978 0 2.978-4.5 0-4.5h-15.486c-2.978 0-2.978 4.5 0 4.5z"/><path d="m68.938 82.575h-37.875c-2.978 0-2.978 4.5 0 4.5h37.875c2.977 0 2.977-4.5 0-4.5z"/></svg>