<svg width="125" height="125" viewBox="0 0 125 125" fill="none" xmlns="http://www.w3.org/2000/svg">
<path fill-rule="evenodd" clip-rule="evenodd" d="M122.297 56.6838L68.3063 2.69695C65.1992 -0.412818 60.156 -0.412818 57.0449 2.69695L45.8337 13.9081L60.0556 28.13C63.3608 27.0134 67.1503 27.7623 69.7852 30.3972C72.4323 33.0484 73.1758 36.8705 72.032 40.1865L85.7383 53.8928C89.0543 52.7504 92.8805 53.4899 95.529 56.1424C99.2303 59.8424 99.2303 65.8394 95.529 69.5421C91.8263 73.2448 85.8292 73.2448 82.1252 69.5421C79.3411 66.7552 78.6532 62.6659 80.0629 59.2359L67.2805 46.4535L67.2792 80.0911C68.1814 80.5389 69.0335 81.1345 69.7852 81.8835C73.4865 85.5835 73.4865 91.5805 69.7852 95.2859C66.0825 98.9872 60.0827 98.9872 56.3855 95.2859C52.6841 91.5805 52.6841 85.5835 56.3855 81.8835C57.3 80.9704 58.3583 80.2797 59.4871 79.8157V45.8647C58.3583 45.4034 57.3013 44.7168 56.3855 43.7969C53.581 40.9965 52.9067 36.8814 54.3435 33.4378L40.3251 19.4167L3.30502 56.4341C0.193898 59.5466 0.193898 64.5898 3.30502 67.6996L57.2959 121.688C60.4043 124.797 65.4461 124.797 68.5586 121.688L122.297 67.9506C125.407 64.8394 125.407 59.7935 122.297 56.6838Z" fill="white"/>
</svg>
