<svg width="30" height="30" viewBox="0 0 30 30" fill="none" xmlns="http://www.w3.org/2000/svg">
<path d="M21.3601 30.0001C20.9623 30.0001 20.5808 29.8421 20.2994 29.5608C20.0181 29.2795 19.8601 28.8979 19.8601 28.5001V24.6001C19.9067 24.1515 19.8587 23.6981 19.7192 23.2692C19.5797 22.8403 19.3517 22.4454 19.0501 22.1101C18.8634 21.9076 18.736 21.6575 18.682 21.3874C18.628 21.1172 18.6494 20.8374 18.7439 20.5787C18.8385 20.3199 19.0024 20.0921 19.2178 19.9204C19.4332 19.7487 19.6918 19.6396 19.9651 19.6051C23.6251 19.1701 27.0001 18.0001 27.0001 11.6551C27.0013 10.4702 26.6516 9.31151 25.9951 8.3251C25.3893 7.41704 25.1682 6.3059 25.3801 5.2351C25.5153 4.53658 25.5153 3.81862 25.3801 3.1201C24.2569 3.49986 23.1994 4.05141 22.2451 4.7551C22.0647 4.88322 21.8582 4.96984 21.6403 5.00874C21.4225 5.04764 21.1987 5.03786 20.9851 4.9801C18.2781 4.21518 15.4121 4.21518 12.7051 4.9801C12.4915 5.03786 12.2677 5.04764 12.0499 5.00874C11.8321 4.96984 11.6255 4.88322 11.4451 4.7551C10.485 4.04326 9.41625 3.49115 8.28011 3.1201C8.13746 3.81788 8.13746 4.53731 8.28011 5.2351C8.47674 6.31938 8.24555 7.43767 7.63511 8.3551C6.9815 9.34843 6.6322 10.511 6.63011 11.7001C6.63011 17.5351 9.45011 19.0951 13.6801 19.6351C13.9569 19.6694 14.2186 19.7803 14.4359 19.9552C14.6532 20.13 14.8174 20.362 14.9101 20.6251C14.9973 20.8803 15.0141 21.1544 14.9587 21.4184C14.9032 21.6823 14.7776 21.9265 14.5951 22.1251C14.3034 22.437 14.0794 22.8059 13.9374 23.2087C13.7954 23.6114 13.7385 24.0392 13.7701 24.4651V28.5001C13.7701 28.8979 13.6121 29.2795 13.3308 29.5608C13.0495 29.8421 12.6679 30.0001 12.2701 30.0001C11.8723 30.0001 11.4908 29.8421 11.2094 29.5608C10.9281 29.2795 10.7701 28.8979 10.7701 28.5001V27.6451C9.29615 27.8146 7.80315 27.6171 6.42398 27.0701C5.04481 26.5232 3.82225 25.6437 2.86511 24.5101C2.37311 23.9648 1.78283 23.517 1.12511 23.1901C0.934033 23.1409 0.754531 23.0545 0.596847 22.9358C0.439164 22.8172 0.306388 22.6687 0.206101 22.4988C0.105814 22.3288 0.0399789 22.1408 0.0123554 21.9454C-0.0152681 21.7501 -0.00413909 21.5512 0.0451066 21.3601C0.0943523 21.169 0.180751 20.9895 0.299368 20.8318C0.417986 20.6742 0.5665 20.5414 0.736431 20.4411C0.906363 20.3408 1.09438 20.275 1.28976 20.2473C1.48513 20.2197 1.68403 20.2309 1.87511 20.2801C3.02898 20.7005 4.06001 21.4015 4.87511 22.3201C6.37511 23.8201 7.87511 25.1401 10.7251 24.6001C10.675 23.7947 10.7925 22.9877 11.0701 22.2301C7.98011 21.4501 3.57011 19.2301 3.57011 11.7301C3.56615 9.95354 4.08807 8.21556 5.07011 6.7351C5.25251 6.4618 5.32237 6.12864 5.26511 5.8051C4.962 4.18596 5.13391 2.5137 5.76011 0.990098C5.84519 0.786945 5.97397 0.605021 6.13729 0.457252C6.30062 0.309482 6.49448 0.199493 6.70511 0.135098C7.21511 -0.0149019 9.04511 -0.314902 12.5101 1.9351C15.3151 1.2601 18.2401 1.2601 21.0451 1.9351C24.5101 -0.314902 26.3401 -0.0299019 26.8351 0.135098C27.0457 0.199493 27.2396 0.309482 27.4029 0.457252C27.5662 0.605021 27.695 0.786945 27.7801 0.990098C28.4075 2.51865 28.5795 4.19606 28.2751 5.8201C28.2444 5.96643 28.2432 6.11741 28.2715 6.26421C28.2999 6.41101 28.3572 6.5507 28.4401 6.6751C29.425 8.15981 29.947 9.90344 29.9401 11.6851C29.9401 19.2901 25.5601 21.4951 22.4401 22.1851C22.715 22.99 22.8271 23.8415 22.7701 24.6901V28.5001C22.7708 28.8828 22.6252 29.2513 22.3631 29.5302C22.1009 29.809 21.7421 29.9771 21.3601 30.0001Z" fill="white"/>
</svg>
