<svg width="36" height="36" viewBox="0 0 36 36" fill="none" xmlns="http://www.w3.org/2000/svg">
<path d="M4.86 0.163086C3.54002 0.163086 2.34 0.643038 1.44 1.5429C0.480023 2.50274 0 3.70251 0 4.96233C0 6.28211 0.54 7.48195 1.44 8.38182C2.34 9.28168 3.6 9.8216 4.80002 9.76164C4.80002 9.76164 4.86 9.76164 4.92005 9.76164C6.12007 9.76164 7.26005 9.28168 8.16005 8.38182C9.06005 7.48195 9.60005 6.28211 9.60005 4.96233C9.66002 3.70251 9.12002 2.50267 8.22002 1.6028C7.32002 0.642968 6.12 0.163086 4.86 0.163086ZM7.32002 7.54199C6.66 8.20191 5.76 8.62183 4.80002 8.56186C3.90002 8.56186 2.94005 8.20191 2.28002 7.54199C1.56002 6.88206 1.20002 5.92223 1.20002 4.9624C1.20002 4.00256 1.56002 3.1027 2.28002 2.3828C2.94005 1.72288 3.84005 1.36293 4.86 1.36293C5.76 1.36293 6.66 1.72288 7.32002 2.3828C8.04002 3.1027 8.40002 4.00256 8.40002 4.9624C8.40002 5.92223 8.04002 6.88206 7.32002 7.54199Z" fill="white"/>
<path d="M7.20012 10.9614H2.34012C1.38014 10.9614 0.600098 11.7413 0.600098 12.7612V33.7581C0.600098 34.7179 1.44012 35.5578 2.4001 35.5578H7.20012C8.1601 35.5578 9.00012 34.7179 9.00012 33.818V12.7612C9.00012 11.8013 8.1601 10.9614 7.20012 10.9614ZM7.8001 33.818C7.8001 34.118 7.50007 34.358 7.20012 34.358H2.4001C2.10007 34.358 1.80012 34.058 1.80012 33.7581V12.7612C1.80012 12.4612 2.0401 12.1613 2.34012 12.1613H7.20012C7.50014 12.1613 7.8001 12.4612 7.8001 12.7612V33.818Z" fill="white"/>
<path d="M27.5999 10.3613H26.3399C23.9999 10.3613 21.78 11.3812 20.34 13.001V12.1611C20.34 11.5612 19.74 10.9612 19.1399 10.9612H13.14C12.6 10.9612 11.9399 11.4412 11.9399 12.101V34.4777C11.9399 35.1376 12.6 35.5575 13.14 35.5575H19.74C20.28 35.5575 20.94 35.1376 20.94 34.4777V21.5196C20.94 19.5399 22.38 17.9801 24.24 17.9801C25.2 17.9801 26.1 18.3401 26.76 19C27.36 19.5399 27.6 20.3798 27.6 21.4596V34.3577C27.6 34.9576 28.2 35.5576 28.8 35.5576H34.8C35.4 35.5576 36 34.9577 36 34.3577V18.88C36 14.0808 32.34 10.3613 27.5999 10.3613ZM34.7999 34.2978L34.74 34.3577H28.8599L28.8 21.4597C28.8 20.0199 28.44 18.9401 27.66 18.1602C26.76 17.2604 25.56 16.7804 24.3 16.7804C21.78 16.8404 19.8 18.8801 19.8 21.5197V34.3577H13.1999V12.1611H19.1399L19.1999 12.221V16.0005L20.8199 14.3807L20.8799 14.3207C22.0799 12.641 24.1799 11.5612 26.3999 11.5612H27.6599C31.6799 11.5612 34.7999 14.8007 34.7999 18.8801V34.2978Z" fill="white"/>
</svg>
