<svg width="60" height="128" viewBox="0 0 60 128" fill="none" xmlns="http://www.w3.org/2000/svg">
<path d="M40.7973 14.1079C35.4635 7.8322 30.8705 1.3589 29.9815 0.0741218C29.8827 -0.0247073 29.7346 -0.0247073 29.6358 0.0741218C28.6974 1.40831 24.1044 7.8322 18.7706 14.1573C-26.9618 72.5158 25.9811 111.899 25.9811 111.899L26.4256 112.196C26.8207 118.274 27.8085 127.02 27.8085 127.02H29.7839H31.7594C31.7594 127.02 32.7472 118.323 33.1423 112.196L33.5868 111.85C33.5868 111.85 86.5297 72.5158 40.7973 14.1079ZM29.7839 111.01C29.7839 111.01 27.4134 108.984 26.7713 107.946V107.847L29.6358 44.3001C29.6358 44.1025 29.9321 44.1025 29.9321 44.3001L32.7472 107.798V107.897C32.1051 108.984 29.7839 111.01 29.7839 111.01Z" fill="white"/>
</svg>
