<svg width="151" height="162" viewBox="0 0 151 162" fill="none" xmlns="http://www.w3.org/2000/svg">
<path fill-rule="evenodd" clip-rule="evenodd" d="M138.937 98.3265C130.748 98.1391 124.361 98.8419 119.066 100.81C117.537 101.325 115.08 101.325 114.862 103.012C115.681 103.714 115.79 104.839 116.5 105.823C117.701 107.603 119.885 109.946 121.85 111.164C123.979 112.569 126.163 113.975 128.401 115.193C132.386 117.301 136.917 118.519 140.793 120.628C143.032 121.846 145.325 123.439 147.563 124.751C148.709 125.453 149.419 126.578 150.838 127.046V126.765C150.129 125.969 149.91 124.844 149.201 123.954C148.163 123.064 147.126 122.268 146.144 121.424C143.196 118.004 139.483 115.006 135.498 112.523C132.222 110.602 125.016 107.931 123.706 104.698C123.706 104.698 123.597 104.605 123.488 104.511C125.726 104.324 128.401 103.621 130.585 103.105C134.079 102.309 137.245 102.496 140.848 101.7C142.486 101.325 144.124 100.903 145.761 100.482V99.6852C143.905 98.0923 142.595 95.984 140.63 94.4847C135.389 90.5961 129.657 86.848 123.706 83.6621C120.54 81.8817 116.445 80.7573 113.06 79.258C111.859 78.7427 109.785 78.4616 109.075 77.5714C107.219 75.6505 106.182 73.0737 104.872 70.7779C101.924 65.9522 99.0302 60.5643 96.4643 55.4575C94.6082 52.0374 93.5163 48.6172 91.2234 45.4313C80.687 30.4857 69.168 21.4434 51.5892 12.5416C47.8223 10.7144 43.2912 9.918 38.487 8.93412C35.9212 8.84042 33.3553 8.65298 30.7894 8.60612C29.1517 7.99705 27.5139 6.31042 26.0945 5.51395C20.2531 2.32805 5.18555 -4.51225 0.872739 4.53007C-1.91148 10.2459 4.96717 15.8681 7.31465 18.7729C9.06161 20.7875 11.2999 23.0832 12.5556 25.3789C13.2653 26.8782 13.4836 28.4711 14.1933 30.0641C15.8311 33.9527 17.3597 38.263 19.5434 41.8706C20.6898 43.6978 21.8909 45.6656 23.3103 47.3054C24.1292 48.2892 25.5486 48.7109 25.8761 50.3039C24.4567 52.0842 24.3475 54.7079 23.5286 56.9099C19.8164 66.8424 21.2904 79.1643 26.4767 86.4732C28.1144 88.6752 31.9905 93.5008 37.2314 91.6736C41.8172 90.0807 40.8345 85.0676 42.1447 80.6636C42.4723 79.586 42.2539 78.8832 42.8544 78.1804V78.3678C44.2738 80.8041 45.7478 83.1935 47.0581 85.6766C50.2244 89.987 55.7928 94.4847 60.3786 97.4363C62.8353 99.0293 64.8006 101.747 67.8578 102.731V102.449H67.6394C67.0389 101.653 66.1108 101.325 65.2919 100.716C63.4358 99.123 61.4159 97.2021 59.9419 95.4218C55.6291 90.5024 51.8622 85.0207 48.4774 79.3986C46.8397 76.6812 45.4203 73.6827 44.0555 70.9653C43.4549 69.9346 43.4549 68.3417 42.4177 67.7794C40.8891 69.7003 38.6508 71.387 37.5044 73.7295C35.539 77.5245 35.3752 82.1628 34.6109 87.0353C34.2288 87.1291 34.3926 87.0354 34.2288 87.2228C30.9533 86.52 29.8068 83.6152 28.6057 81.1789C25.5486 74.9477 25.0027 64.9215 27.6777 57.7064C28.3874 55.8792 31.4992 50.0696 30.2435 48.2893C29.643 46.6026 27.5685 45.6656 26.4767 44.3069C25.1664 42.6203 23.6924 40.5119 22.819 38.6847C20.3623 33.7654 19.1067 28.2837 16.4862 23.3643C15.2306 21.0686 13.1015 18.6792 11.3545 16.5709C9.38918 14.1814 7.26008 12.5416 5.73149 9.73057C5.24016 8.74669 4.53046 7.15376 5.29476 6.12304C5.51313 5.42026 5.89526 5.13914 6.71415 4.99859C8.02437 4.01471 11.8458 5.27968 13.1561 5.79504C16.9775 7.10688 20.1439 8.37188 23.3103 10.1991C24.7297 11.0893 26.2583 12.7291 28.1144 13.1976H30.2981C33.5737 13.8066 37.286 13.385 40.3431 14.1814C45.7478 15.6807 50.7157 17.8827 55.0831 20.2721C68.5129 27.5809 79.5952 37.9351 87.0744 50.3507C88.33 52.3653 88.8213 54.2394 89.9678 56.3477C92.0969 60.658 94.7719 65.062 96.9556 69.2787C99.0847 73.4016 101.159 77.6182 104.216 81.0852C105.745 82.9124 111.914 83.8963 114.644 84.8802C116.664 85.6767 119.885 86.3794 121.741 87.3164C125.235 89.1437 128.729 91.252 132.004 93.3134C133.533 94.391 138.664 96.593 138.937 98.3265Z" fill="white"/>
<path fill-rule="evenodd" clip-rule="evenodd" d="M34.4469 21.9116C32.7 21.9116 31.4989 22.099 30.2433 22.3333V22.5207H30.4617C31.2806 23.9262 32.7 24.9101 33.7372 26.1282C34.5561 27.5338 35.2658 28.9393 36.0847 30.3449C36.1939 30.2512 36.3031 30.1574 36.3031 30.1574C37.7225 29.2673 38.4868 27.8617 38.4868 25.7534C37.8863 25.1443 37.7771 24.5353 37.2312 23.9262C36.5761 23.0361 35.2658 22.6144 34.4469 21.9116Z" fill="white"/>
<path d="M64.2358 151.058C64.8734 151.058 65.4263 151.183 65.8946 151.432C66.3728 151.671 66.7414 152.04 67.0004 152.538C67.2694 153.036 67.4039 153.664 67.4039 154.421V158.979H66.3429V154.525C66.3429 153.698 66.1436 153.076 65.7451 152.657C65.3566 152.229 64.8037 152.015 64.0864 152.015C63.5484 152.015 63.0802 152.129 62.6817 152.359C62.2932 152.578 61.9893 152.902 61.7701 153.33C61.5609 153.748 61.4563 154.256 61.4563 154.854V158.979H60.3953V154.525C60.3953 153.698 60.1961 153.076 59.7976 152.657C59.3991 152.229 58.8412 152.015 58.1239 152.015C57.5959 152.015 57.1327 152.129 56.7342 152.359C56.3357 152.578 56.0268 152.902 55.8077 153.33C55.5985 153.748 55.4939 154.256 55.4939 154.854V158.979H54.4329V151.133H55.449V153.255L55.2846 152.882C55.5237 152.314 55.9073 151.87 56.4353 151.552C56.9733 151.223 57.6059 151.058 58.3331 151.058C59.1002 151.058 59.7528 151.253 60.2907 151.641C60.8287 152.02 61.1774 152.593 61.3368 153.36L60.9184 153.195C61.1475 152.558 61.551 152.045 62.1288 151.656C62.7166 151.258 63.4189 151.058 64.2358 151.058Z" fill="white"/>
<path d="M70.195 161.952C69.8264 161.952 69.4728 161.893 69.134 161.773C68.8053 161.653 68.5214 161.474 68.2823 161.235L68.7754 160.443C68.9746 160.632 69.1888 160.777 69.418 160.876C69.6571 160.986 69.9211 161.041 70.21 161.041C70.5587 161.041 70.8575 160.941 71.1066 160.742C71.3656 160.553 71.6097 160.214 71.8388 159.726L72.3469 158.575L72.4665 158.411L75.6943 151.133H76.7403L72.8102 159.92C72.591 160.428 72.3469 160.832 72.0779 161.13C71.8189 161.429 71.535 161.638 71.2261 161.758C70.9173 161.888 70.5736 161.952 70.195 161.952ZM72.2871 159.203L68.6708 151.133H69.7766L72.9745 158.336L72.2871 159.203Z" fill="white"/>
<path d="M80.254 159.053C79.6065 159.053 78.9938 158.964 78.416 158.784C77.8381 158.595 77.3849 158.361 77.0561 158.082L77.5343 157.245C77.8531 157.484 78.2615 157.693 78.7597 157.873C79.2578 158.042 79.7808 158.127 80.3287 158.127C81.0759 158.127 81.6139 158.012 81.9426 157.783C82.2714 157.544 82.4358 157.23 82.4358 156.842C82.4358 156.553 82.3411 156.329 82.1518 156.169C81.9725 156 81.7334 155.875 81.4346 155.796C81.1357 155.706 80.8019 155.631 80.4333 155.571C80.0647 155.512 79.6961 155.442 79.3275 155.362C78.9689 155.283 78.6401 155.168 78.3412 155.019C78.0424 154.859 77.7983 154.645 77.609 154.376C77.4297 154.107 77.34 153.748 77.34 153.3C77.34 152.872 77.4596 152.488 77.6987 152.149C77.9378 151.811 78.2865 151.547 78.7447 151.357C79.213 151.158 79.7808 151.058 80.4483 151.058C80.9564 151.058 81.4644 151.128 81.9725 151.268C82.4806 151.397 82.899 151.572 83.2278 151.791L82.7645 152.642C82.4159 152.403 82.0423 152.234 81.6438 152.134C81.2453 152.025 80.8468 151.97 80.4483 151.97C79.741 151.97 79.2179 152.095 78.8792 152.344C78.5505 152.583 78.3861 152.892 78.3861 153.27C78.3861 153.569 78.4757 153.803 78.6551 153.972C78.8443 154.142 79.0884 154.276 79.3873 154.376C79.6961 154.466 80.0299 154.54 80.3885 154.6C80.7571 154.66 81.1207 154.735 81.4794 154.824C81.848 154.904 82.1817 155.019 82.4806 155.168C82.7894 155.307 83.0335 155.512 83.2128 155.781C83.4021 156.04 83.4968 156.383 83.4968 156.812C83.4968 157.27 83.3673 157.668 83.1082 158.007C82.8592 158.336 82.4906 158.595 82.0024 158.784C81.5242 158.964 80.9414 159.053 80.254 159.053Z" fill="white"/>
<path d="M88.5668 159.053C87.8196 159.053 87.1472 158.884 86.5494 158.545C85.9617 158.206 85.4984 157.738 85.1597 157.14C84.821 156.543 84.6516 155.845 84.6516 155.048C84.6516 154.261 84.821 153.569 85.1597 152.971C85.4984 152.364 85.9617 151.895 86.5494 151.567C87.1472 151.228 87.8196 151.058 88.5668 151.058C89.2642 151.058 89.8819 151.213 90.4198 151.522C90.9678 151.831 91.4011 152.284 91.7199 152.882C92.0387 153.469 92.1981 154.192 92.1981 155.048C92.1981 155.905 92.0337 156.632 91.705 157.23C91.3862 157.818 90.9528 158.271 90.4049 158.59C89.8669 158.899 89.2542 159.053 88.5668 159.053ZM88.6415 158.112C89.1994 158.112 89.6976 157.987 90.1359 157.738C90.5842 157.479 90.9329 157.121 91.1819 156.662C91.441 156.194 91.5705 155.656 91.5705 155.048C91.5705 154.441 91.441 153.908 91.1819 153.449C90.9329 152.991 90.5842 152.633 90.1359 152.374C89.6976 152.114 89.1994 151.985 88.6415 151.985C88.0936 151.985 87.6005 152.114 87.1621 152.374C86.7238 152.633 86.3751 152.991 86.1161 153.449C85.8571 153.908 85.7276 154.441 85.7276 155.048C85.7276 155.656 85.8571 156.194 86.1161 156.662C86.3751 157.121 86.7238 157.479 87.1621 157.738C87.6005 157.987 88.0936 158.112 88.6415 158.112ZM91.5555 161.878V156.647L91.705 155.063L91.6004 153.494V151.133H92.6165V161.878H91.5555Z" fill="white"/>
<path d="M95.5714 158.979V147.89H96.6324V158.979H95.5714Z" fill="white"/>
</svg>
