<svg width="151" height="128" viewBox="0 0 151 128" fill="none" xmlns="http://www.w3.org/2000/svg">
<path fill-rule="evenodd" clip-rule="evenodd" d="M138.937 98.3003C130.748 98.1129 124.361 98.8157 119.066 100.783C117.537 101.299 115.08 101.299 114.862 102.985C115.681 103.688 115.79 104.813 116.5 105.797C117.701 107.577 119.885 109.919 121.85 111.138C123.979 112.543 126.163 113.949 128.401 115.167C132.386 117.275 136.917 118.493 140.793 120.602C143.032 121.82 145.325 123.413 147.563 124.725C148.709 125.427 149.419 126.552 150.838 127.02V126.739C150.129 125.943 149.91 124.818 149.201 123.928C148.163 123.038 147.126 122.241 146.144 121.398C143.196 117.978 139.483 114.979 135.498 112.496C132.222 110.575 125.016 107.905 123.706 104.672C123.706 104.672 123.597 104.578 123.488 104.485C125.726 104.297 128.401 103.595 130.585 103.079C134.079 102.283 137.245 102.47 140.848 101.674C142.486 101.299 144.124 100.877 145.761 100.455V99.659C143.905 98.0661 142.595 95.9578 140.63 94.4586C135.389 90.5699 129.657 86.8218 123.706 83.6359C120.54 81.8555 116.445 80.7311 113.06 79.2319C111.859 78.7165 109.785 78.4354 109.075 77.5452C107.219 75.6243 106.182 73.0475 104.872 70.7518C101.924 65.9261 99.0302 60.5381 96.4643 55.4313C94.6082 52.0112 93.5163 48.591 91.2234 45.4051C80.687 30.4595 69.168 21.4172 51.5892 12.5155C47.8223 10.6883 43.2912 9.89182 38.487 8.90794C35.9212 8.81424 33.3553 8.6268 30.7894 8.57995C29.1517 7.97088 27.5139 6.28424 26.0945 5.48777C20.2531 2.30187 5.18555 -4.53842 0.872739 4.5039C-1.91148 10.2198 4.96717 15.8419 7.31465 18.7467C9.06162 20.7613 11.2999 23.057 12.5556 25.3528C13.2653 26.852 13.4836 28.445 14.1933 30.0379C15.8311 33.9266 17.3597 38.2369 19.5434 41.8444C20.6898 43.6716 21.8909 45.6394 23.3103 47.2792C24.1292 48.2631 25.5486 48.6847 25.8761 50.2777C24.4567 52.058 24.3475 54.6817 23.5286 56.8837C19.8164 66.8162 21.2904 79.1382 26.4767 86.447C28.1144 88.649 31.9905 93.4747 37.2314 91.6475C41.8172 90.0545 40.8345 85.0414 42.1447 80.6374C42.4723 79.5598 42.2539 78.857 42.8544 78.1542V78.3417C44.2738 80.7779 45.7478 83.1673 47.0581 85.6505C50.2244 89.9608 55.7928 94.4585 60.3786 97.4102C62.8353 99.0031 64.8006 101.721 67.8578 102.704V102.423H67.6394C67.0389 101.627 66.1108 101.299 65.2919 100.69C63.4358 99.0968 61.4159 97.1759 59.9419 95.3956C55.6291 90.4762 51.8622 84.9945 48.4774 79.3724C46.8397 76.655 45.4203 73.6565 44.0555 70.9391C43.4549 69.9084 43.4549 68.3155 42.4177 67.7533C40.8891 69.6742 38.6508 71.3608 37.5044 73.7034C35.539 77.4983 35.3752 82.1366 34.6109 87.0092C34.2288 87.1029 34.3926 87.0092 34.2288 87.1966C30.9533 86.4938 29.8068 83.589 28.6057 81.1527C25.5486 74.9215 25.0027 64.8953 27.6777 57.6802C28.3874 55.853 31.4992 50.0435 30.2435 48.2631C29.643 46.5765 27.5685 45.6394 26.4767 44.2807C25.1664 42.5941 23.6924 40.4858 22.819 38.6586C20.3623 33.7392 19.1067 28.2575 16.4862 23.3381C15.2306 21.0424 13.1015 18.653 11.3545 16.5447C9.38918 14.1553 7.26008 12.5155 5.73149 9.70439C5.24016 8.72051 4.53046 7.12759 5.29476 6.09686C5.51313 5.39409 5.89526 5.11297 6.71415 4.97241C8.02437 3.98854 11.8458 5.2535 13.1561 5.76887C16.9775 7.0807 20.1439 8.3457 23.3103 10.1729C24.7297 11.0631 26.2583 12.7029 28.1144 13.1714H30.2981C33.5737 13.7805 37.286 13.3588 40.3431 14.1553C45.7478 15.6545 50.7157 17.8565 55.0831 20.246C68.5129 27.5548 79.5952 37.9089 87.0744 50.3245C88.33 52.3391 88.8213 54.2132 89.9678 56.3215C92.0969 60.6318 94.7719 65.0359 96.9556 69.2525C99.0847 73.3754 101.159 77.5921 104.216 81.0591C105.745 82.8863 111.914 83.8701 114.644 84.854C116.664 85.6505 119.885 86.3532 121.741 87.2903C125.235 89.1175 128.728 91.2258 132.004 93.2873C133.533 94.3649 138.664 96.5668 138.937 98.3003Z" fill="white"/>
<path fill-rule="evenodd" clip-rule="evenodd" d="M34.4468 21.8854C32.6998 21.8854 31.4988 22.0728 30.2432 22.307V22.4944H30.4615C31.2804 23.9 32.6998 24.8838 33.7371 26.102C34.556 27.5075 35.2657 28.9131 36.0846 30.3186C36.1938 30.2249 36.303 30.1312 36.303 30.1312C37.7224 29.241 38.4867 27.8355 38.4867 25.7271C37.8861 25.1181 37.777 24.5091 37.231 23.9C36.5759 23.0098 35.2657 22.5881 34.4468 21.8854Z" fill="white"/>
</svg>
