<svg width="32" height="33" viewBox="0 0 32 33" fill="none" xmlns="http://www.w3.org/2000/svg">
<path d="M13.5 18.3032H5C4.73478 18.3032 4.48043 18.1979 4.29289 18.0104C4.10536 17.8228 4 17.5685 4 17.3034V9.30454C4 9.03936 4.10536 8.78505 4.29289 8.59754C4.48043 8.41003 4.73478 8.30469 5 8.30469H12.5C12.7652 8.30469 13.0196 8.41003 13.2071 8.59754C13.3946 8.78505 13.5 9.03936 13.5 9.30454V20.3029C13.5 21.6288 12.9732 22.9004 12.0355 23.8379C11.0979 24.7755 9.82608 25.3022 8.5 25.3022" stroke="white" stroke-linecap="round" stroke-linejoin="round"/>
<path d="M28 18.3032H19.5C19.2348 18.3032 18.9804 18.1979 18.7929 18.0104C18.6054 17.8228 18.5 17.5685 18.5 17.3034V9.30454C18.5 9.03936 18.6054 8.78505 18.7929 8.59754C18.9804 8.41003 19.2348 8.30469 19.5 8.30469H27C27.2652 8.30469 27.5196 8.41003 27.7071 8.59754C27.8946 8.78505 28 9.03936 28 9.30454V20.3029C28 21.6288 27.4732 22.9004 26.5355 23.8379C25.5979 24.7755 24.3261 25.3022 23 25.3022" stroke="white" stroke-linecap="round" stroke-linejoin="round"/>
</svg>
