<svg width="160" height="128" viewBox="0 0 160 128" fill="none" xmlns="http://www.w3.org/2000/svg">
<path d="M144.501 44.6246L145.215 44.4042L144.501 44.6246C147.173 53.2784 151.719 59.1082 159.25 60.1288V66.8915C151.719 67.9122 147.173 73.7419 144.501 82.3957L145.215 82.6161L144.501 82.3957C141.759 91.279 141.388 102.126 141.678 110.447C141.965 118.706 135.529 126.273 126.902 126.273H33.7059C25.0788 126.273 18.6421 118.706 18.93 110.447L18.1833 110.421L18.93 110.447C19.2195 102.126 18.8481 91.279 16.1059 82.3957C13.4346 73.7411 8.87761 67.9121 1.3463 66.8915V60.1288C8.87731 59.1082 13.4346 53.2792 16.1059 44.6246C18.8481 35.7413 19.2195 24.8947 18.9297 16.5739C18.6421 8.3139 25.0788 0.747299 33.7059 0.747299H126.902C135.529 0.747299 141.965 8.3139 141.678 16.5739C141.388 24.8947 141.759 35.7413 144.501 44.6246Z" stroke="white" stroke-width="1.49435"/>
<rect x="67.5464" y="15.9397" width="8.60748" height="95.6386" fill="white"/>
<path d="M76.1536 25.9815V18.8091C76.1536 18.8091 103.889 20.9131 103.889 40.9016C103.889 60.8901 76.1536 60.8901 76.1536 60.8901V54.1949C76.1536 54.1949 95.1125 54.3891 95.7595 40.9016C96.43 26.9236 76.1536 25.9815 76.1536 25.9815Z" fill="white"/>
<path d="M76.1536 68.0621V60.8896C76.1536 60.8896 103.889 62.9937 103.889 82.9822C103.889 102.971 76.1536 102.971 76.1536 102.971V96.2755C76.1536 96.2755 95.1125 96.4696 95.7595 82.9822C96.43 69.0042 76.1536 68.0621 76.1536 68.0621Z" fill="white"/>
</svg>
