<svg width="125" height="125" viewBox="0 0 125 125" fill="none" xmlns="http://www.w3.org/2000/svg">
<g clip-path="url(#clip0_31_38)">
<path fill-rule="evenodd" clip-rule="evenodd" d="M42.2974 0.362305C30.9209 0.362305 21.6877 9.59542 21.6877 20.9719C21.6877 32.3484 30.9209 41.5816 42.2974 41.5816C30.9209 41.5816 21.6877 50.8147 21.6877 62.1912C21.6877 73.5677 30.9209 82.8008 42.2974 82.8008C30.9209 82.8008 21.6877 92.0339 21.6877 103.41C21.6877 114.787 30.9209 124.02 42.2974 124.02C53.6739 124.02 62.907 114.787 62.907 103.41L62.907 62.1912C62.907 73.5677 72.1401 82.8008 83.5166 82.8008C94.8932 82.8008 104.126 73.5677 104.126 62.1912C104.126 50.8147 94.8932 41.5816 83.5166 41.5816C94.8932 41.5816 104.126 32.3484 104.126 20.9719C104.126 9.59542 94.8932 0.362305 83.5166 0.362305H42.2974ZM83.5166 41.5816H62.907L62.907 62.1912C62.907 50.8147 72.1401 41.5816 83.5166 41.5816Z" fill="white"/>
</g>
<defs>
<clipPath id="clip0_31_38">
<rect width="123.658" height="123.658" fill="white" transform="translate(0.916992 0.362305)"/>
</clipPath>
</defs>
</svg>
