<svg width="124" height="122" viewBox="0 0 124 122" fill="none" xmlns="http://www.w3.org/2000/svg">
<path d="M61.9729 0.414673C27.83 0.414673 0.143555 28.096 0.143555 62.2441C0.143555 89.5619 17.8596 112.738 42.4263 120.914C45.5163 121.486 46.6508 119.573 46.6508 117.939C46.6508 116.465 46.5934 111.595 46.5668 106.428C29.3658 110.168 25.7362 99.133 25.7362 99.133C22.9236 91.9864 18.8711 90.0861 18.8711 90.0861C13.2614 86.2487 19.294 86.3275 19.294 86.3275C25.5027 86.7637 28.772 92.6991 28.772 92.6991C34.2865 102.151 43.2362 99.4187 46.7644 97.8389C47.3193 93.8427 48.9217 91.1151 50.6899 89.5711C36.9568 88.0077 22.5202 82.7061 22.5202 59.0148C22.5202 52.2644 24.9355 46.7488 28.8907 42.4189C28.2488 40.8616 26.1324 34.573 29.4897 26.0564C29.4897 26.0564 34.6817 24.3947 46.4972 32.3942C51.4291 31.0243 56.7185 30.3372 61.9729 30.3137C67.2274 30.3372 72.5209 31.0243 77.462 32.3942C89.2632 24.3947 94.448 26.0564 94.448 26.0564C97.8135 34.573 95.6961 40.8616 95.0542 42.4189C99.0186 46.7488 101.418 52.2644 101.418 59.0148C101.418 82.7624 86.9533 87.9913 73.1853 89.522C75.403 91.4407 77.3791 95.2034 77.3791 100.972C77.3791 109.245 77.3074 115.903 77.3074 117.939C77.3074 119.585 78.4204 121.513 81.5544 120.906C106.108 112.721 123.801 89.5527 123.801 62.2441C123.801 28.096 96.119 0.414673 61.9729 0.414673ZM23.3007 88.492C23.1645 88.7991 22.6812 88.8913 22.241 88.6804C21.7925 88.4786 21.5406 88.0599 21.686 87.7517C21.8191 87.4353 22.3034 87.3473 22.7509 87.5592C23.2003 87.7609 23.4563 88.1838 23.3007 88.492ZM26.342 91.2057C26.0471 91.4791 25.4707 91.3521 25.0796 90.92C24.6751 90.489 24.5994 89.9125 24.8983 89.6351C25.2024 89.3617 25.7615 89.4897 26.1669 89.9207C26.5713 90.3569 26.6502 90.9292 26.342 91.2057ZM28.4285 94.6778C28.0496 94.9409 27.4302 94.6942 27.0473 94.1444C26.6684 93.5946 26.6684 92.9352 27.0554 92.671C27.4394 92.4069 28.0496 92.6444 28.4377 93.1901C28.8155 93.7492 28.8155 94.4085 28.4285 94.6778ZM31.9571 98.699C31.6182 99.0727 30.8964 98.9724 30.3681 98.4625C29.8275 97.9639 29.677 97.2564 30.0169 96.8827C30.3599 96.5079 31.0858 96.6134 31.6182 97.1192C32.1547 97.6168 32.3185 98.3294 31.9571 98.699ZM36.5175 100.057C36.3681 100.541 35.6729 100.761 34.9725 100.555C34.2732 100.343 33.8156 99.776 33.9569 99.2866C34.1022 98.7992 34.8005 98.5699 35.506 98.79C36.2042 99.0009 36.6629 99.5641 36.5175 100.057ZM41.7075 100.632C41.7249 101.142 41.1311 101.565 40.3959 101.574C39.6567 101.591 39.0588 101.178 39.0506 100.676C39.0506 100.161 39.6311 99.7426 40.3703 99.7303C41.1055 99.716 41.7075 100.126 41.7075 100.632ZM46.8061 100.437C46.8941 100.935 46.3832 101.445 45.6532 101.582C44.9355 101.713 44.271 101.405 44.1799 100.912C44.0908 100.402 44.6109 99.8912 45.3276 99.7591C46.0587 99.6322 46.7129 99.9311 46.8061 100.437Z" fill="white"/>
</svg>
